<svg xmlns="http://www.w3.org/2000/svg" fill="none" viewBox="0 0 48 48" id="School--Streamline-Ionic-Filled" height="48" width="48">
  <desc>
    School Streamline Icon: https://streamlinehq.com
  </desc>
  <path fill="#000000" d="M23.9988 34.4996c-0.2611 0 -0.5177 -0.0682 -0.7443 -0.1978L10.124 26.7972c-0.1141 -0.0658 -0.24355 -0.1005 -0.37527 -0.1004 -0.13171 0 -0.26118 0.0348 -0.37519 0.1007 -0.11404 0.066 -0.2087 0.1607 -0.27445 0.2749 -0.06574 0.1142 -0.10026 0.2437 -0.10007 0.3754v7.0518c-0.00022 0.2677 0.07122 0.5306 0.20689 0.7614 0.13567 0.2308 0.33067 0.4211 0.56467 0.5511L23.2704 43.312c0.2228 0.1238 0.4735 0.1888 0.7284 0.1888 0.2549 0 0.5056 -0.065 0.7285 -0.1888l13.4998 -7.4999c0.234 -0.13 0.429 -0.3203 0.5646 -0.5511 0.1357 -0.2308 0.2071 -0.4937 0.2069 -0.7614v-7.0518c0.0002 -0.1317 -0.0343 -0.2612 -0.1 -0.3754 -0.0658 -0.1142 -0.1604 -0.2089 -0.2745 -0.2749 -0.114 -0.0659 -0.2435 -0.1007 -0.3752 -0.1007 -0.1317 -0.0001 -0.2612 0.0346 -0.3753 0.1004l-13.1304 7.5046c-0.2267 0.1296 -0.4833 0.1978 -0.7444 0.1978Z" stroke-width="1"></path>
  <path fill="#000000" d="m46.4927 17.8591 0 -0.0103c-0.0243 -0.2378 -0.105 -0.4663 -0.2354 -0.6666 -0.1305 -0.2002 -0.307 -0.3663 -0.5146 -0.4846L24.743 4.69773c-0.2267 -0.12957 -0.4833 -0.19773 -0.7444 -0.19773 -0.2611 0 -0.5177 0.06816 -0.7444 0.19773L2.2545 16.6976c-0.22951 0.1312 -0.42026 0.3208 -0.55293 0.5494 -0.13267 0.2287 -0.20255 0.4884 -0.20255 0.7527 0 0.2644 0.06988 0.5241 0.20255 0.7527 0.13267 0.2288 0.32342 0.4182 0.55293 0.5495l20.9997 11.9998c0.2267 0.1296 0.4833 0.1978 0.7444 0.1978 0.2611 0 0.5177 -0.0682 0.7444 -0.1978l18.476 -10.557c0.0286 -0.0165 0.0609 -0.0251 0.0939 -0.0251 0.033 0.0001 0.0653 0.0088 0.0938 0.0253 0.0286 0.0166 0.0523 0.0403 0.0687 0.0689 0.0164 0.0286 0.0249 0.061 0.0248 0.094v13.5495c0 0.8072 0.6206 1.5 1.4278 1.5403 0.2028 0.0098 0.4055 -0.0217 0.5958 -0.0926 0.1902 -0.0709 0.3642 -0.1796 0.5111 -0.3197 0.147 -0.1401 0.2641 -0.3085 0.3441 -0.4952 0.0799 -0.1866 0.1212 -0.3875 0.1212 -0.5906V17.9997c-0.0001 -0.0469 -0.0027 -0.0939 -0.0075 -0.1406Z" stroke-width="1"></path>
</svg>