<svg xmlns="http://www.w3.org/2000/svg" fill="none" viewBox="0 0 48 48" id="Storefront--Streamline-Ionic-Filled" height="48" width="48">
  <desc>
    Storefront Streamline Icon: https://streamlinehq.com
  </desc>
  <path fill="#000000" d="M45 41.9999h-1.125c-0.0994 0 -0.1948 -0.0396 -0.2651 -0.1099s-0.1099 -0.1656 -0.1099 -0.2651V25.6417c0.0009 -0.0597 -0.0125 -0.1187 -0.039 -0.1721 -0.0266 -0.0535 -0.0655 -0.0999 -0.1135 -0.1352 -0.0481 -0.0355 -0.1039 -0.0588 -0.1627 -0.0684 -0.0589 -0.0094 -0.1193 -0.0048 -0.176 0.0138 -0.8602 0.2704 -1.7536 0.4211 -2.655 0.4481 -0.1106 0 -0.2156 0.0047 -0.3187 0.0047 -1.7337 0.004 -3.4395 -0.4362 -4.9546 -1.2787 -0.1147 -0.0639 -0.2438 -0.0973 -0.375 -0.0973 -0.1313 0 -0.2603 0.0334 -0.375 0.0973 -1.5148 0.8425 -3.2203 1.2827 -4.9537 1.2787 -1.7237 0.0025 -3.4184 -0.443 -4.9181 -1.2928 -0.1156 -0.0655 -0.2462 -0.0999 -0.3792 -0.0999 -0.1329 0 -0.2635 0.0344 -0.3792 0.0999 -1.5222 0.8529 -3.2388 1.2985 -4.9837 1.2938 -1.7352 0.0011 -3.4406 -0.4514 -4.9471 -1.3125 -0.1165 -0.0664 -0.2483 -0.1013 -0.3825 -0.1013 -0.134 0 -0.2659 0.0349 -0.3825 0.1013 -1.5064 0.8611 -3.21181 1.3136 -4.94709 1.3125 -0.10219 0 -0.20531 0 -0.31593 -0.0047h-0.00563c-0.933 -0.0281 -1.85726 -0.1887 -2.74496 -0.4772 -0.05621 -0.0182 -0.11593 -0.0228 -0.17427 -0.0135 -0.05835 0.0093 -0.11367 0.0321 -0.16147 0.0669 -0.04779 0.0347 -0.0867 0.0803 -0.11356 0.1329 -0.02687 0.0526 -0.04091 0.1108 -0.04101 0.1699v16.017c0 0.0995 -0.0395 0.1948 -0.10983 0.2651s-0.16571 0.1099 -0.26516 0.1099H3.04748c-0.80999 0 -1.50936 0.6225 -1.54498 1.4325 -0.00912 0.2024 0.02287 0.4046 0.09404 0.5943 0.07117 0.1897 0.18004 0.363 0.32005 0.5096 0.14 0.1464 0.30824 0.263 0.49455 0.3427 0.1863 0.0797 0.38683 0.1208 0.58946 0.1209h41.9526c0.8099 0 1.5093 -0.6225 1.5449 -1.4325 0.0091 -0.2025 -0.0228 -0.4046 -0.094 -0.5944 -0.0712 -0.1897 -0.18 -0.3631 -0.3201 -0.5095 -0.1399 -0.1465 -0.3082 -0.2632 -0.4945 -0.3428 -0.1863 -0.0796 -0.3868 -0.1208 -0.5895 -0.1208ZM21.0004 35.625c0 0.0995 -0.0395 0.1948 -0.1098 0.2651 -0.0704 0.0703 -0.1658 0.1099 -0.2652 0.1099h-8.2499c-0.0995 0 -0.1948 -0.0396 -0.2652 -0.1099 -0.0703 -0.0703 -0.1098 -0.1656 -0.1098 -0.2651v-5.9999c0 -0.2984 0.1185 -0.5846 0.3295 -0.7956 0.2109 -0.2109 0.4971 -0.3294 0.7955 -0.3294h6.7499c0.2984 0 0.5845 0.1185 0.7954 0.3294 0.2111 0.211 0.3296 0.4972 0.3296 0.7956v5.9999Zm14.6248 6.3749h-6.75c-0.0994 0 -0.1948 -0.0396 -0.2651 -0.1099s-0.1099 -0.1656 -0.1099 -0.2651V29.6251c0 -0.2984 0.1185 -0.5846 0.3296 -0.7956 0.2109 -0.2109 0.4971 -0.3294 0.7954 -0.3294h5.25c0.2984 0 0.5845 0.1185 0.7954 0.3294 0.211 0.211 0.3295 0.4972 0.3295 0.7956v11.9998c0 0.0995 -0.0394 0.1948 -0.1097 0.2651 -0.0704 0.0703 -0.1658 0.1099 -0.2652 0.1099Z" stroke-width="1"></path>
  <path fill="#000000" d="m46.1786 15.9646 -4.0237 -9.23336c-1.0537 -2.26591 -3.4603 -3.73026 -6.1312 -3.73026H11.9725c-2.67092 0 -5.07745 1.46435 -6.13119 3.73026l-4.0237 9.23336c-0.843734 1.8196 0.27094 3.688 0.27188 3.689l0.02625 0.0422c0.04593 0.0731 0.12749 0.1874 0.17718 0.2606 0.00469 0.0056 0.00844 0.0122 0.01313 0.0187l0.46874 0.5672c0.01752 0.0214 0.03631 0.0417 0.05625 0.0609l0.46874 0.4528 0.03938 0.0338c0.27527 0.236 0.56973 0.4486 0.8803 0.6356v0.0047c1.02028 0.6181 2.18268 0.9626 3.37495 1.0003l0.23156 0c1.80403 0.0034 3.54223 -0.677 4.86463 -1.904l0.031 -0.0291c0.138 -0.1301 0.3207 -0.2026 0.5104 -0.2026 0.1898 0 0.3724 0.0725 0.5105 0.2026l0.0309 0.0291c1.3365 1.2249 3.0836 1.9045 4.8965 1.9045 1.8129 0 3.56 -0.6796 4.8965 -1.9045 0.1387 -0.1284 0.3206 -0.1997 0.5095 -0.1997 0.1889 0 0.3709 0.0713 0.5096 0.1997 1.3325 1.221 3.0731 1.9002 4.8805 1.9042 1.8074 0.004 3.5511 -0.6675 4.889 -1.8827 0.1366 -0.1264 0.3159 -0.1968 0.502 -0.1968s0.3655 0.0704 0.5021 0.1968c1.3393 1.2226 3.0906 1.8949 4.904 1.8825h0.2334c1.1623 -0.0434 2.2933 -0.3892 3.2812 -1.0031 0.0891 -0.0534 0.1744 -0.1097 0.2606 -0.1659 0.6663 -0.4492 1.2462 -1.0148 1.7119 -1.6697l0.1631 -0.2466c0.0162 -0.025 0.0312 -0.0513 0.045 -0.0787 0.1556 -0.3169 0.99 -1.9462 0.2203 -3.6018Z" stroke-width="1"></path>
</svg>