<svg xmlns="http://www.w3.org/2000/svg" fill="none" viewBox="0 0 48 48" id="Logo-Linkedin--Streamline-Ionic-Filled" height="48" width="48">
  <desc>
    Logo Linkedin Streamline Icon: https://streamlinehq.com
  </desc>
  <path fill="#000000" d="M43.7578 0.48H4.4994C2.3543 0.48 0.48 2.0235 0.48 4.1435V43.489c0 2.1315 1.8743 4.031 4.0194 4.031h39.2469c2.1567 0 3.7736 -1.9121 3.7736 -4.031V4.1435C47.5326 2.0235 45.903 0.48 43.7578 0.48ZM15.0614 39.6901h-6.739V18.7374h6.739v20.9527ZM11.925 15.5516h-0.0483c-2.1567 0 -3.5532 -1.6054 -3.5532 -3.615 0 -2.0465 1.4333 -3.6142 3.6383 -3.6142 2.2049 0 3.5542 1.5562 3.6025 3.6142 -0.001 2.0096 -1.3976 3.615 -3.6393 3.615Zm27.7651 24.1385h-6.7389V28.2336c0 -2.7447 -0.9806 -4.62 -3.4188 -4.62 -1.8627 0 -2.9652 1.26 -3.4556 2.4875 -0.1837 0.4409 -0.233 1.0416 -0.233 1.6548v11.9342h-6.7389V18.7374h6.7389v2.9159c0.9806 -1.3966 2.5126 -3.4062 6.0774 -3.4062 4.4236 0 7.77 2.9158 7.77 9.2021l-0.0011 12.2409Z" stroke-width="1"></path>
</svg>