<svg xmlns="http://www.w3.org/2000/svg" fill="none" viewBox="0 0 48 48" id="Logo-Youtube--Streamline-Ionic-Filled" height="48" width="48">
  <desc>
    Logo Youtube Streamline Icon: https://streamlinehq.com
  </desc>
  <g clip-path="url(#a)">
    <path fill="#f40d00" d="M47.683 13.9431c0-4.2187-3.1031-7.6124-6.9375-7.6124-5.1936-.24281-10.4904-.33656-15.9035-.33656h-1.6875c-5.3999 0-10.7061.09375-15.89973.3375-3.82495 0-6.928032 3.41245-6.928032 7.63116-.2343722 3.3365-.33374596 6.674-.32812103 10.0114C-.0107579 27.3117.0954905 30.6522.317363 33.996c0 4.2186 3.103087 7.6405 6.928037 7.6405 5.4561.2531 11.0529.3656 16.7435.3562 5.6999.0188 11.2812-.1 16.7435-.3562 3.8343 0 6.9374-3.4219 6.9374-7.6405.225-3.3469.3282-6.6843.3188-10.0312.0213-3.3374-.0806-6.678-.3056-10.0217ZM19.4046 33.171V14.7493l13.5935 9.2062-13.5935 9.2155Z"></path>
  </g>
  <defs>
    <clipPath id="a">
      <path fill="#ffffff" d="M0 0h47.999v47.999H0z" transform="translate(-.001 -.006)"></path>
    </clipPath>
  </defs>
</svg>